# xmcd
#
# Track frame offsets:
#	150
#	19891
#	34155
#	47237
#	70093
#	85372
#	116127
#	139068
#	152566
#	176633
#	195404
#
# Disc length: 3031 seconds
#
# Revision: 3
# Processed by: cddbd v1.5.1PL0 Copyright (c) Steve Scherf et al.
# Submitted via: dBpowerAMP V4.0
#
DISCID=940bd50b
DTITLE=Magnet Coda - Blue Green Eyes
DYEAR=2005
DGENRE=
TTITLE0=Magnet Coda
TTITLE1=Fake God
TTITLE2=Miracle Play
TTITLE3=Dream Story
TTITLE4=Save Your Soul
TTITLE5=Blue Green Eyes
TTITLE6=Above The Rooftops
TTITLE7=Money And Fame
TTITLE8=Teenage Ghosts
TTITLE9=Cameraman
TTITLE10=Open Is The End
EXTD=
EXTT0=
EXTT1=
EXTT2=
EXTT3=
EXTT4=
EXTT5=
EXTT6=
EXTT7=
EXTT8=
EXTT9=
EXTT10=
PLAYORDER=
